<svg width="102" height="104" viewBox="0 0 102 104" fill="none" xmlns="http://www.w3.org/2000/svg">
<g clip-path="url(#clip0_541_6320)">
<path d="M73.7721 20.7042L68.4035 15.342L73.7721 9.98412C74.7305 9.02428 75.0167 7.58119 74.4976 6.32652C73.9785 5.07407 72.7539 4.2561 71.3962 4.2561H48.8634V3.35611C48.8634 1.50071 47.3592 0.00219727 45.5068 0.00219727C43.65 0.00219727 42.1503 1.50292 42.1503 3.35611V7.59006C42.1503 7.59671 42.1481 7.60557 42.1481 7.61222V23.0783C42.1481 23.085 42.1503 23.0939 42.1503 23.1005V37.4804L28.5068 56.797L33.1811 61.8134L45.5778 44.2636L60.7055 64.5954L64.7586 58.7943L48.8678 37.4383V26.4345H71.4028C72.7605 26.4345 73.9851 25.6165 74.5042 24.364C75.0189 23.1072 74.7305 21.6641 73.7721 20.7042ZM60.2995 15.342C60.2995 16.2331 60.6544 17.0843 61.2822 17.7139L63.29 19.72H48.8611V10.9639H63.2877L61.2822 12.9678C60.6544 13.5974 60.2995 14.4508 60.2995 15.342Z" fill="white"/>
<path d="M101.254 76.5214L79.8264 50.0293C79.1608 49.2091 78.147 48.748 77.0977 48.7857C76.0417 48.8234 75.0656 49.3532 74.4599 50.2199L50.3609 84.73L20.8688 53.0817C20.1766 52.3347 19.1783 51.9468 18.1623 52.0199C17.1462 52.0953 16.2189 52.6295 15.6421 53.4719L0.585476 75.4574C-0.461634 76.9847 -0.0667493 79.0751 1.46176 80.1214C2.04078 80.5182 2.70188 80.7066 3.3541 80.7066C4.42562 80.7066 5.47938 80.1967 6.12939 79.2458L18.8145 60.7228L46.4298 90.356L40.5886 98.7219C39.5304 100.24 39.9009 102.333 41.4227 103.395C42.0084 103.8 42.6762 103.998 43.3395 103.998C44.4021 103.998 45.4426 103.497 46.0948 102.561L77.4127 57.7169L94.4482 78.7803L80.523 98.7219C79.4648 100.24 79.8353 102.333 81.3571 103.395C81.9428 103.8 82.6105 103.998 83.2738 103.998C84.3365 103.998 85.3769 103.497 86.0292 102.561L101.388 80.5692L101.39 80.5603C102.231 79.3677 102.219 77.7162 101.254 76.5214Z" fill="white"/>
</g>
<defs>
<clipPath id="clip0_541_6320">
<rect width="102" height="104" fill="white"/>
</clipPath>
</defs>
</svg>
