<svg width="126" height="80" viewBox="0 0 126 80" fill="none" xmlns="http://www.w3.org/2000/svg">
<g clip-path="url(#clip0_541_6368)">
<path d="M29.8274 41.2353C24.2956 41.2353 19.643 37.2351 18.7614 31.7242C18.4938 30.0535 16.9376 28.9169 15.2882 29.1875C13.6366 29.4582 12.5153 31.03 12.7805 32.7007C14.1391 41.1977 21.3063 47.3627 29.8274 47.3627C31.5 47.3627 32.8562 45.9909 32.8562 44.299C32.8562 42.6072 31.5 41.2353 29.8274 41.2353Z" fill="white"/>
<path d="M15.4629 25.4532C15.8282 25.5991 16.2027 25.6674 16.5726 25.6674C17.7799 25.6674 18.9221 24.9308 19.392 23.7261L19.4664 23.5425C20.1038 21.9777 19.3687 20.187 17.8218 19.5423C16.2748 18.8975 14.5045 19.6411 13.8671 21.2059C13.8299 21.2977 13.7927 21.3895 13.7578 21.4812C13.1413 23.0554 13.9067 24.8344 15.4629 25.4532Z" fill="white"/>
<path d="M29.8272 36.0915C33.21 36.0915 35.9523 33.3176 35.9523 29.8959C35.9523 26.4741 33.21 23.7002 29.8272 23.7002C26.4444 23.7002 23.7021 26.4741 23.7021 29.8959C23.7021 33.3176 26.4444 36.0915 29.8272 36.0915Z" fill="white"/>
<path d="M69.1413 79.3788C69.9602 80.2071 71.2885 80.2071 72.1073 79.3788L78.4348 72.9784C79.2536 72.1501 79.2536 70.8065 78.4348 69.9782L65.838 57.1916C65.0192 56.3633 63.6909 56.3633 62.8721 57.1916L62.0323 58.0411L52.6062 48.5064C56.6493 43.3931 59.0756 36.9198 59.0756 29.8771C59.0733 13.4031 45.8228 0 29.5366 0C13.2504 0 0 13.4031 0 29.8771C0 46.351 13.2504 59.7541 29.5366 59.7541C36.4992 59.7541 42.9034 57.2998 47.956 53.2078L57.3821 62.7425L56.5423 63.592C55.7234 64.4203 55.7234 65.7639 56.5423 66.5921L69.1413 79.3788ZM6.86249 29.8959C6.86249 17.0881 17.1655 6.66627 29.8274 6.66627C42.4893 6.66627 52.7923 17.0881 52.7923 29.8959C52.7923 42.7037 42.4916 53.1255 29.8274 53.1255C17.1632 53.1255 6.86249 42.706 6.86249 29.8959Z" fill="white"/>
<path d="M96.461 36.0915C99.8438 36.0915 102.586 33.3176 102.586 29.8959C102.586 26.4741 99.8438 23.7002 96.461 23.7002C93.0782 23.7002 90.3359 26.4741 90.3359 29.8959C90.3359 33.3176 93.0782 36.0915 96.461 36.0915Z" fill="white"/>
<path d="M66.936 29.1781C66.9477 29.4017 66.9523 29.637 66.9523 29.8841C66.9523 46.3768 80.1702 59.7493 96.475 59.7493C96.6913 59.7493 96.896 59.7564 97.0915 59.7682C113.089 59.4293 126 46.1603 126 29.8982C126 13.4243 112.75 0.0211182 96.4634 0.0211182C80.4121 0.0211182 67.3152 13.036 66.936 29.1781ZM73.4984 29.8982C73.4984 17.088 83.7992 6.66857 96.4634 6.66857C109.125 6.66857 119.426 17.088 119.426 29.8982C119.426 42.706 109.125 53.1278 96.4634 53.1278C83.7992 53.1278 73.4984 42.706 73.4984 29.8982Z" fill="white"/>
<path d="M72.5378 25.9992V35.4021C67.5922 29.6818 58.6942 29.6818 53.7485 35.4021V25.9992C59.5851 22.8484 66.7012 22.8484 72.5378 25.9992Z" fill="white"/>
</g>
<defs>
<clipPath id="clip0_541_6368">
<rect width="126" height="80" fill="white"/>
</clipPath>
</defs>
</svg>
